<svg width="457.667" height="75" viewBox="0 0 457.667 75" xmlns="http://www.w3.org/2000/svg"><path d="M30.495 16.502h4.403v-4.773h-4.403V7.733h7.104V1.85H21.652v25.9h8.843zM54.323 3.663C52.362 2.331 50.068 1.85 48.55 1.85h-8.103v25.9H46.7v-8.658l4.033 8.658h7.14l-.258-.444-4.625-10.249a5.25 5.25 0 0 0 1.332-.518c1.554-.888 3.293-2.886 3.293-6.068V9.768c0-3.182-1.813-5.069-3.293-6.105zm-5.957 3.552c.962 0 1.739.777 1.739 1.739v2.294c0 .962-.777 1.739-1.74 1.739-.813 0-1.701.037-1.701.037l-.037-5.846s.777.037 1.739.037zM72.564 1.85h-8.658l-4.514 25.9h6.179l1.147-7.622h3.774l1.184 7.622h5.809l-4.921-25.9zm-2.405 14.06h-3.071c.11-.444.333-1.998 1.036-6.697h.555s1.11 6.327 1.48 6.697zM71.417-.74l4.144-5.92h-7.215l-2.59 5.92zm23.717 14.393c1.073-1.628 1.073-3.589 1.073-3.589v-.37c0-3.182-1.295-5.402-2.775-6.438-1.961-1.332-3.441-1.443-4.921-1.443h-8.103v25.9h7.252c3.44 0 5.143-.481 7.104-1.813 1.48-.999 2.775-2.886 2.775-6.068v-.703c0-2.59-1.11-4.403-2.405-5.476zm-5.106 6.956c0 .962-.777 1.739-1.702 1.739-.777 0-1.443.037-1.665.037v-5.846c.222 0 .962.037 1.665.037.925 0 1.702.777 1.702 1.739v2.294zm0-9.916c0 .962-.777 1.739-1.702 1.739-.703 0-1.443.037-1.665.037V7.141c.222 0 .888.037 1.665.037.925 0 1.702.777 1.702 1.739v1.776zm32.56-2.96V1.85h-19.351l-4.514 25.9h6.253l.962-6.438 3.626.074v6.364h13.024v-6.734h-6.845v-4.514h4.144v-4.773h-4.144V7.733h6.845zm-13.024 7.844c-.037.185-.037.37-.037.518l-3.071.037c.222-2.405.222-1.665 1.147-8.362h1.924s0 1.887.037 2.59v5.217zM139.46 3.663c-1.961-1.332-4.255-1.813-5.772-1.813h-8.103v25.9h6.253v-8.658l4.033 8.658h7.14l-.258-.444-4.625-10.249a5.25 5.25 0 0 0 1.332-.518c1.554-.888 3.293-2.886 3.293-6.068V9.768c0-3.182-1.813-5.069-3.293-6.105zm-5.957 3.552c.962 0 1.739.777 1.739 1.739v2.294c0 .962-.777 1.739-1.74 1.739-.813 0-1.701.037-1.701.037l-.037-5.846s.777.037 1.739.037zm16.872-5.365h-5.883v5.624h5.883V27.75h6.475V7.474h5.883V1.85h-12.358zm40.44 0h-7.066v19.61c0 .962-.777 1.702-1.702 1.739-.925-.037-1.702-.777-1.702-1.739V1.85h-7.067v14.356c0 2.405.222 4.366.666 5.957.11.629.333 1.221.592 1.739 1.406 3.293 3.848 4.366 6.4 4.625.297.037.593.037.889.037h.444c.296 0 .592 0 .85-.037 2.59-.259 5.033-1.332 6.439-4.625.259-.518.48-1.11.592-1.739.407-1.591.666-3.552.666-5.957V1.85zm-1.59-8.51h-7.215l-2.59 5.92h5.66zM207.54 3.663c-1.961-1.332-4.255-1.813-5.772-1.813h-8.103v25.9h6.253v-8.658l4.033 8.658h7.14l-.258-.444-4.625-10.249a5.25 5.25 0 0 0 1.332-.518c1.554-.888 3.293-2.886 3.293-6.068V9.768c0-3.182-1.813-5.069-3.293-6.105zm-5.957 3.552c.962 0 1.739.777 1.739 1.739v2.294c0 .962-.777 1.739-1.74 1.739-.813 0-1.701.037-1.701.037l-.037-5.846s.777.037 1.739.037zM222.71 1.85l-2.664 12.321-2.664-12.321h-6.18l5.625 25.9h6.438l5.624-25.9h-6.18zm19.758 0h-8.658l-4.514 25.9h6.179l1.147-7.622h3.81l1.148 7.622h5.846zm-2.405 14.06h-3.071c.11-.444.37-1.998 1.036-6.697h.555s1.147 6.327 1.48 6.697zm16.724 5.143V1.85h-7.844v25.9h15.947v-6.697h-8.103zm33.707-17.39c-1.961-1.332-4.255-1.813-5.772-1.813h-8.103v25.9h6.253v-8.658l4.033 8.658h7.14l-.258-.444-4.625-10.249a5.25 5.25 0 0 0 1.332-.518c1.554-.888 3.293-2.886 3.293-6.068V9.768c0-3.182-1.813-5.069-3.293-6.105zm-5.957 3.552c.962 0 1.739.777 1.739 1.739v2.294c0 .962-.777 1.739-1.74 1.739-.813 0-1.701.037-1.701.037l-.037-5.846s.777.037 1.739.037zm23.828-5.365h-8.658l-4.514 25.9h6.179l1.147-7.622h3.81l1.148 7.622h5.846zm-2.405 14.06h-3.071c.11-.444.37-1.998 1.036-6.697h.555s1.147 6.327 1.48 6.697zm18.093.592h4.403v-4.773h-4.403V7.733h7.104V1.85H315.21v25.9h8.843zm21.2-14.652v9.916h-5.216V1.85h-6.18v25.9h6.18V16.465h5.217V27.75h6.216V1.85h-6.216zm26.012 0h-6.808v19.055c0 .925-.74 1.665-1.665 1.665s-1.665-.74-1.665-1.665l-.037-1.11h-7.178v.037c0 3.367 1.702 5.18 3.182 6.179 1.813 1.221 3.885 1.739 5.883 1.739 5.29 0 8.325-2.035 8.288-7.696V1.85zm19.72 12.247c-.184-6.512-1.627-12.173-8.398-12.173h-.222-.222c-7.141 0-8.362 6.327-8.4 12.173l-.036 1.554c0 2.405.259 4.329.666 5.883.703 3.552 3.44 5.846 6.919 6.253.259.037.555.037.85.037h.445c.259 0 .555 0 .85-.037 2.517-.259 4.922-1.295 6.328-4.551 1.11-2.368 1.22-5.18 1.22-7.585zm-6.955 6.771c0 .925-.74 1.665-1.665 1.702-.925-.037-1.665-.777-1.665-1.702V8.917c0-.925.74-1.665 1.665-1.702.925.037 1.665.777 1.665 1.702zm5.698-26.788h-7.215L379.923 0h5.66zm10.84 26.973V1.85h-7.843v25.9h15.947v-6.697h-8.103zM424.102 1.85h-8.658l-4.514 25.9h6.179l1.147-7.622h3.81l1.148 7.622h5.846zm-2.405 14.06h-3.071c.11-.444.37-1.998 1.036-6.697h.555s1.147 6.327 1.48 6.697zM88.677 51.06c-.185-6.586-1.665-12.321-8.51-12.321h-.222-.222c-7.252 0-8.473 6.401-8.51 12.321l-.037 1.591c0 2.442.26 4.366.666 5.957.703 3.589 3.478 5.92 7.03 6.327.26.037.555.037.851.037h.444c.26 0 .555 0 .851-.037 2.553-.259 4.995-1.295 6.438-4.625 1.11-2.368 1.221-5.217 1.221-7.659V51.06zm-7.03 6.882c0 .925-.777 1.665-1.702 1.702-.925-.037-1.702-.777-1.702-1.702V45.806c0-.925.777-1.665 1.702-1.702.925.037 1.702.777 1.702 1.702zM99.444 44.03c.962 0 1.776.777 1.776 1.739v1.184h7.585v-.37c0-3.219-1.813-5.143-3.33-6.179-1.96-1.332-4.292-1.813-5.846-1.813-4.662 0-9.62 5.291-9.62 14.43 0 3.367.703 6.475 1.961 8.769 1.37 2.442 3.293 3.811 5.402 3.811.37 0 .703-.037 1.073-.111 1.332-.296 2.59-.999 3.626-2.109v1.369h5.328V52.392h-8.88l.037 3.737h2.886v1.776c0 .925-.999 1.295-1.85 1.295-.85 0-1.887-.37-1.887-1.295V45.769c0-.962.777-1.739 1.74-1.739zm33.448-3.367c-1.96-1.332-4.255-1.813-5.772-1.813h-8.103v25.9h6.253v-8.658l4.033 8.658h7.141l-.259-.444-4.625-10.249a5.25 5.25 0 0 0 1.332-.518c1.554-.888 3.293-2.886 3.293-6.068V46.768c0-3.182-1.813-5.069-3.293-6.105zm-5.957 3.552c.962 0 1.74.777 1.74 1.739v2.294c0 .962-.778 1.739-1.74 1.739-.814 0-1.702.037-1.702.037l-.037-5.846s.777.037 1.74.037zm23.828-5.365h-8.658l-4.514 25.9h6.18l1.146-7.622h3.811l1.147 7.622h5.846zm-2.405 14.06h-3.07c.11-.444.37-1.998 1.035-6.697h.555s1.147 6.327 1.48 6.697zm18.093.592h4.403v-4.773h-4.403v-3.996h7.104V38.85h-15.947v25.9h8.843zm21.201-14.652v9.916h-5.217V38.85h-6.179v25.9h6.18V53.465h5.216V64.75h6.216v-25.9h-6.216zm16.835 19.203V38.85h-7.844v25.9h15.947v-6.697h-8.103zM228.02 38.85h-8.658l-4.514 25.9h6.18l1.146-7.622h3.811l1.147 7.622h5.846zm-2.405 14.06h-3.07c.11-.444.37-1.998 1.035-6.697h.555s1.147 6.327 1.48 6.697zm26.492-14.06h-7.067v19.61c0 .962-.777 1.702-1.702 1.739-.925-.037-1.702-.777-1.702-1.739V38.85h-7.067v14.356c0 2.405.222 4.366.666 5.957.111.629.333 1.221.592 1.739 1.406 3.293 3.848 4.366 6.401 4.625.296.037.592.037.888.037h.444c.296 0 .592 0 .851-.037 2.59-.259 5.032-1.332 6.438-4.625.26-.518.481-1.11.592-1.739.407-1.591.666-3.552.666-5.957V38.85zm9.213 15.836c3.848.037 5.365.111 7.622-1.147 1.591-.851 3.293-2.886 3.293-6.068V46.768c0-3.182-1.813-5.069-3.293-6.105-1.96-1.332-4.255-1.813-5.772-1.813h-8.103v25.9h6.253zm1.665-10.471c.962 0 1.74.777 1.74 1.739v2.294c0 .962-.778 1.739-1.74 1.739-.777 0-1.702.037-1.702.037v-5.846s.74.037 1.702.037zm23.236-5.365h-8.658l-4.514 25.9h6.18l1.146-7.622h3.811l1.147 7.622h5.846zm-2.405 14.06h-3.07c.11-.444.37-1.998 1.035-6.697h.555s1.147 6.327 1.48 6.697zm20.498-14.06v9.916h-5.217V38.85h-6.179v25.9h6.18V53.465h5.216V64.75h6.216v-25.9h-6.216zm26.011 0h-6.808v19.055c0 .925-.74 1.665-1.665 1.665s-1.665-.74-1.665-1.665l-.037-1.11h-7.178v.037c0 3.367 1.702 5.18 3.182 6.179 1.813 1.221 3.885 1.739 5.883 1.739 5.291 0 8.325-2.035 8.288-7.696V38.85zm19.721 12.247c-.185-6.512-1.628-12.173-8.399-12.173h-.222-.222c-7.14 0-8.362 6.327-8.399 12.173l-.037 1.554c0 2.405.26 4.329.666 5.883.703 3.552 3.441 5.846 6.92 6.253.258.037.554.037.85.037h.444c.26 0 .555 0 .851-.037 2.516-.259 4.921-1.295 6.327-4.551 1.11-2.368 1.221-5.18 1.221-7.585zm-6.956 6.771c0 .925-.74 1.665-1.665 1.702-.925-.037-1.665-.777-1.665-1.702V45.917c0-.925.74-1.665 1.665-1.702.925.037 1.665.777 1.665 1.702zm5.698-26.788h-7.215l-2.59 5.92h5.661zm10.841 26.973V38.85h-7.844v25.9h15.947v-6.697h-8.103zM383.16 38.85h-8.658l-4.514 25.9h6.18l1.146-7.622h3.811l1.147 7.622h5.846zm-2.405 14.06h-3.07c.11-.444.37-1.998 1.035-6.697h.555s1.147 6.327 1.48 6.697z" fill="#fff"/></svg>