<?xml version="1.0" encoding="UTF-8"?>
<svg width="42px" height="42px" viewBox="0 0 42 42" version="1.1" xmlns="http://www.w3.org/2000/svg" xmlns:xlink="http://www.w3.org/1999/xlink">
    <!-- Generator: Sketch 61.2 (89653) - https://sketch.com -->
    <title>asdf</title>
    <desc>Created with Sketch.</desc>
    <g id="asdf" stroke="none" stroke-width="1" fill="none" fill-rule="evenodd">
        <path d="M20.9904502,41.9809004 C32.5648022,41.9809004 42,32.5648022 42,20.9904502 C42,9.41609823 32.5648022,0 20.9904502,0 C9.41609823,0 0,9.41609823 0,20.9904502 C0,32.5648022 9.41609823,41.9809004 20.9904502,41.9809004 Z M18.20191,27.0641201 L11.4024557,19.7680764 C10.4092769,18.7175989 10.4092769,17.0177353 11.3451569,16.1582538 C12.4338336,15.1268759 14.0572988,15.1268759 15.0313779,16.1964529 L20.9904502,22.5948158 L26.9495225,16.1964529 C27.9427012,15.1268759 29.5661664,15.1268759 30.6357435,16.1582538 C31.5716235,17.0177353 31.5716235,18.7175989 30.5975443,19.7680764 L23.7789905,27.0641201 C22.3465211,28.6493861 19.6343793,28.6493861 18.20191,27.0641201 Z" fill="#000000" fill-rule="nonzero"></path>
    </g>
</svg>