<?xml version="1.0" encoding="UTF-8"?>
<svg width="211px" height="42px" viewBox="0 0 211 42" version="1.1" xmlns="http://www.w3.org/2000/svg" xmlns:xlink="http://www.w3.org/1999/xlink">
    <!-- Generator: Sketch 61.2 (89653) - https://sketch.com -->
    <title>örflæði logo</title>
    <desc>Created with Sketch.</desc>
    <g id="örflæði-logo" stroke="none" stroke-width="1" fill="none" fill-rule="evenodd">
        <g id="Group" transform="translate(1.000000, 0.000000)">
            <path d="M7.94961815,21.552 C8.28561815,21.552 8.47761815,21.408 8.57361815,21.072 L11.6936182,11.376 L11.7896182,11.376 L14.8616182,21.072 C14.9576182,21.408 15.1496182,21.552 15.4856182,21.552 L23.0696182,21.552 C23.3576182,21.552 23.5016182,21.36 23.4056182,21.072 L15.6296182,0.672 C15.5336182,0.384 15.2936182,0.192 14.9576182,0.192 L8.47761815,0.192 C8.14161815,0.192 7.94961815,0.384 7.80561815,0.672 L0.0296181503,21.072 C-0.0663818497,21.36 0.0776181503,21.552 0.36561815,21.552 L7.94961815,21.552 Z" id="Path" fill="#000000" fill-rule="nonzero"></path>
            <path class="letter" d="M52.5416182,6.72 C52.8296182,6.72 53.0216182,6.528 53.0696182,6.24 L54.1256182,0.48 C54.1736182,0.192 54.0296182,0 53.7416182,0 L47.8856182,0 C47.5976182,0 47.3576182,0.192 47.3096182,0.48 L46.2536182,6.24 C46.2056182,6.528 46.3976182,6.72 46.6856182,6.72 L52.5416182,6.72 Z" id="Path" fill="#000000" fill-rule="nonzero"></path>
            <path class="letter" d="M42.7976182,6.72 C43.0856182,6.72 43.2776182,6.528 43.3256182,6.24 L44.3816182,0.48 C44.4296182,0.192 44.2856182,0 43.9976182,0 L38.1416182,0 C37.8536182,0 37.6136182,0.192 37.5656182,0.48 L36.5096182,6.24 C36.4616182,6.528 36.6536182,6.72 36.9416182,6.72 L42.7976182,6.72 Z" id="Path" fill="#000000" fill-rule="nonzero"></path>
            <path class="letter" d="M44.6696182,8.736 C50.4776182,8.736 54.5096182,11.76 54.5096182,17.808 C54.5096182,20.4 53.9336182,24 52.6376182,26.688 C50.2376182,31.584 46.0136182,33.408 40.7816182,33.408 C34.9736182,33.408 30.9416182,30.384 30.9416182,24.336 C30.9416182,21.744 31.5176182,18.144 32.8136182,15.456 C35.2136182,10.56 39.4376182,8.736 44.6696182,8.736 Z M43.6136182,16.176 C42.7016182,16.176 41.9336182,16.464 41.3576182,17.664 C40.7816182,18.864 40.0616182,22.8 40.0616182,24 C40.0616182,25.296 40.5896182,25.968 41.8376182,25.968 C42.7496182,25.968 43.5176182,25.68 44.0936182,24.48 C44.6696182,23.28 45.3896182,19.344 45.3896182,18.144 C45.3896182,16.848 44.8616182,16.176 43.6136182,16.176 Z" id="Combined-Shape" fill="#000000" fill-rule="nonzero"></path>
            <path class="letter" d="M64.0616182,32.832 C64.3496182,32.832 64.5416182,32.64 64.5896182,32.352 L66.6536182,20.736 C67.0376182,18.48 67.8056182,17.28 69.4856182,17.28 C70.3496182,17.28 71.2136182,17.664 72.1256182,18.288 C72.4136182,18.48 72.7016182,18.432 72.8456182,18.144 L77.0216182,9.696 C77.1656182,9.36 77.0696182,9.12 76.7336182,9.024 C76.2536182,8.832 75.6296182,8.736 74.7176182,8.736 C72.0776182,8.736 69.6296182,9.696 68.1896182,11.952 L68.1416182,11.952 L68.5256182,9.792 C68.5736182,9.504 68.4296182,9.312 68.1416182,9.312 L59.8376182,9.312 C59.5976182,9.312 59.3576182,9.504 59.3096182,9.792 L55.3256182,32.352 C55.2776182,32.64 55.4696182,32.832 55.7096182,32.832 L64.0616182,32.832 Z" id="Path" fill="#000000" fill-rule="nonzero"></path>
            <path class="letter" d="M85.2776182,32.832 C85.5176182,32.832 85.7096182,32.64 85.7576182,32.352 L88.4936182,16.08 C88.5416182,15.888 88.6376182,15.792 88.8296182,15.792 L91.8056182,15.792 C92.0456182,15.792 92.2856182,15.6 92.3336182,15.312 L93.3416182,9.792 C93.3896182,9.504 93.2456182,9.312 92.9576182,9.312 L89.9816182,9.312 C89.8136182,9.312 89.7191182,9.2385 89.7302744,9.05934375 L89.7896182,8.64 C89.9816182,7.296 90.6056182,6.864 92.1896182,6.864 L93.4856182,6.864 C93.7256182,6.864 93.9656182,6.672 94.0136182,6.384 L95.0216182,0.672 C95.0696182,0.384 94.8776182,0.192 94.6376182,0.192 L91.0856182,0.192 C84.6056182,0.192 81.7256182,2.4 80.6696182,8.736 L80.5736182,9.024 C80.5256182,9.216 80.4296182,9.312 80.2376182,9.312 L79.0376182,9.312 C78.7976182,9.312 78.5576182,9.504 78.5096182,9.792 L77.5496182,15.312 C77.5016182,15.6 77.5976182,15.792 77.8856182,15.792 L79.0856182,15.792 C79.2776182,15.792 79.3736182,15.888 79.3256182,16.08 L76.5416182,32.352 C76.4936182,32.64 76.6856182,32.832 76.9736182,32.832 L85.2776182,32.832 Z" id="Path" fill="#000000" fill-rule="nonzero"></path>
            <path class="letter" d="M104.093618,33.12 C104.333618,33.12 104.573618,32.928 104.621618,32.64 L105.821618,25.968 C105.869618,25.68 105.677618,25.488 105.437618,25.488 L104.525618,25.488 C103.181618,25.488 102.797618,24.768 103.085618,23.04 L107.165618,0.672 C107.213618,0.384 107.021618,0.192 106.733618,0.192 L98.3816182,0.192 C98.1416182,0.192 97.9496182,0.384 97.9016182,0.672 L93.6296182,24.192 C92.5736182,30.432 94.1096182,33.12 100.829618,33.12 L104.093618,33.12 Z" id="Path" fill="#000000" fill-rule="nonzero"></path>
            <path class="letter" d="M135.437618,8.736 C141.101618,8.736 145.133618,11.664 145.133618,17.136 C145.133618,18.432 144.941618,20.256 144.461618,23.136 C144.418951,23.392 144.224581,23.5721481 143.979643,23.6090206 L143.885618,23.616 L130.589618,23.616 C130.397618,23.616 130.301618,23.712 130.253618,23.856 C130.205618,24 130.205618,24.192 130.205618,24.336 C130.205618,25.968 131.645618,26.688 133.949618,26.688 C135.629618,26.688 137.357618,26.016 139.229618,24.816 C139.485618,24.6453333 139.703692,24.6642963 139.850128,24.805465 L139.901618,24.864 L142.733618,28.896 C142.877618,29.088 142.877618,29.424 142.637618,29.664 C139.805618,32.112 136.637618,33.408 131.693618,33.408 C128.256199,33.408 125.762796,31.8795921 124.735447,30.4323899 L124.637618,30.288 L124.589618,30.288 C122.477618,32.208 119.981618,33.408 115.325618,33.408 C110.621618,33.408 107.741618,31.44 107.741618,27.216 C107.741618,21.6936 111.825991,18.4454533 118.853744,18.3387158 L119.213618,18.336 L122.285618,18.336 C122.45019,18.336 122.579496,18.2654694 122.643309,18.1244082 L122.669618,18.048 L122.813618,17.52 C123.053618,16.32 122.573618,15.744 118.973618,15.744 C117.149618,15.744 115.133618,16.272 113.981618,16.944 C113.725618,17.072 113.54547,17.0103704 113.441174,16.792823 L113.405618,16.704 L111.533618,11.808 C111.389618,11.472 111.533618,11.232 111.821618,11.04 C114.221618,9.552 117.917618,8.736 121.661618,8.736 C124.645966,8.736 127.059395,9.57041966 128.691868,10.5671406 L128.909618,10.704 L128.957618,10.704 C130.493618,9.6 133.037618,8.736 135.437618,8.736 Z M121.325618,23.616 L119.117618,23.616 C117.437618,23.616 116.525618,24.432 116.525618,25.728 C116.525618,26.544 117.053618,27.072 118.301618,27.072 C120.221618,27.072 121.181618,26.496 121.373618,25.248 L121.373618,25.248 L121.565618,23.904 C121.613618,23.712 121.517618,23.616 121.325618,23.616 L121.325618,23.616 Z M134.477618,14.976 C133.181618,14.976 132.173618,15.696 131.645618,16.752 C131.453618,17.136 131.357618,17.52 131.309618,18.048 C131.309618,18.2125714 131.344883,18.3066122 131.475869,18.3301224 L131.549618,18.336 L136.253618,18.336 C136.445618,18.336 136.541618,18.24 136.589618,18.048 C136.685618,17.712 136.733618,17.376 136.733618,17.136 C136.733618,15.696 135.869618,14.976 134.477618,14.976 Z" id="Combined-Shape" fill="#000000" fill-rule="nonzero"></path>
            <path class="letter" d="M162.221618,0.192 C162.701618,0.192 162.893618,0.336 163.037618,0.624 L163.037618,0.624 L163.757618,2.016 L168.269618,0.72 C168.509618,0.672 168.701618,0.768 168.749618,1.056 L168.749618,1.056 L169.181618,4.848 C169.229618,5.136 169.085618,5.376 168.797618,5.472 L168.797618,5.472 L166.013618,6.288 L166.397618,6.96 C169.133618,12.096 170.141618,15.792 170.141618,19.344 C170.141618,21.36 169.805618,24.24 168.605618,26.688 C166.397618,31.248 162.413618,33.408 156.701618,33.408 C150.509618,33.408 146.909618,29.904 146.909618,24.336 C146.909618,21.936 147.197618,20.112 148.349618,17.712 C150.077618,14.112 153.149618,11.952 157.037618,11.952 C158.285618,11.952 159.293618,12.24 160.061618,12.816 L160.061618,12.816 L160.157618,12.816 L157.949618,8.592 L153.197618,9.936 C152.957618,9.984 152.765618,9.888 152.717618,9.6 L152.717618,9.6 L152.285618,5.808 C152.237618,5.52 152.381618,5.28 152.669618,5.184 L152.669618,5.184 L155.693618,4.32 L153.821618,0.672 C153.677618,0.432 153.821618,0.192 154.109618,0.192 L154.109618,0.192 Z M159.101618,18.912 C158.237618,18.912 157.421618,19.248 156.845618,20.4 C156.269618,21.6 156.029618,22.992 156.029618,24 C156.029618,25.296 156.557618,25.968 157.805618,25.968 C158.669618,25.968 159.437618,25.68 160.061618,24.48 C160.637618,23.28 160.877618,21.936 160.877618,20.88 C160.877618,19.632 160.349618,18.912 159.101618,18.912 Z" id="Combined-Shape" fill="#000000" fill-rule="nonzero"></path>
            <path class="letter" d="M184.637618,6.912 C184.925618,6.912 185.117618,6.72 185.165618,6.432 L186.173618,0.672 C186.221618,0.384 186.077618,0.192 185.789618,0.192 L177.437618,0.192 C177.149618,0.192 176.957618,0.384 176.909618,0.672 L175.901618,6.432 C175.853618,6.72 175.997618,6.912 176.285618,6.912 L184.637618,6.912 Z" id="Path" fill="#000000" fill-rule="nonzero"></path>
            <path class="letter" d="M180.077618,32.832 C180.365618,32.832 180.557618,32.64 180.605618,32.352 L184.589618,9.792 C184.637618,9.504 184.493618,9.312 184.205618,9.312 L175.853618,9.312 C175.613618,9.312 175.373618,9.504 175.325618,9.792 L171.341618,32.352 C171.293618,32.64 171.485618,32.832 171.725618,32.832 L180.077618,32.832 Z" id="Path" fill="#000000" fill-rule="nonzero"></path>
            <polygon id="Path" fill="#000000" fill-rule="nonzero" points="208.013618 41.808 209.165618 35.28 182.045618 35.28 180.893618 41.808"></polygon>
            <path d="M14.7176182,0.192 L27.9416182,38.808 L205.013618,38.808" id="Path-2" stroke="#000000" stroke-dasharray="7"></path>
        </g>
    </g>
</svg>